<svg width="172" height="16" viewBox="0 0 172 16" fill="none" xmlns="http://www.w3.org/2000/svg">
<path d="M171.707 8.70709C172.098 8.31657 172.098 7.6834 171.707 7.29288L165.343 0.928918C164.953 0.538393 164.319 0.538393 163.929 0.928918C163.538 1.31944 163.538 1.95261 163.929 2.34313L169.586 7.99999L163.929 13.6568C163.538 14.0474 163.538 14.6805 163.929 15.0711C164.319 15.4616 164.953 15.4616 165.343 15.0711L171.707 8.70709ZM8.74228e-08 9L2.03571 9L2.03571 7L-8.74228e-08 7L8.74228e-08 9ZM6.10714 9L10.1786 9L10.1786 7L6.10714 7L6.10714 9ZM14.25 9L18.3214 9L18.3214 7L14.25 7L14.25 9ZM22.3929 9L26.4643 9L26.4643 7L22.3929 7L22.3929 9ZM30.5357 9L34.6071 9L34.6071 7L30.5357 7L30.5357 9ZM38.6786 9L42.75 9L42.75 7L38.6786 7L38.6786 9ZM46.8214 9L50.8929 9L50.8929 7L46.8214 7L46.8214 9ZM54.9643 9L59.0357 8.99999L59.0357 6.99999L54.9643 7L54.9643 9ZM63.1072 8.99999L67.1786 8.99999L67.1786 6.99999L63.1072 6.99999L63.1072 8.99999ZM71.25 8.99999L75.3214 8.99999L75.3214 6.99999L71.25 6.99999L71.25 8.99999ZM79.3929 8.99999L83.4643 8.99999L83.4643 6.99999L79.3929 6.99999L79.3929 8.99999ZM87.5357 8.99999L91.6071 8.99999L91.6071 6.99999L87.5357 6.99999L87.5357 8.99999ZM95.6786 8.99999L99.75 8.99999L99.75 6.99999L95.6786 6.99999L95.6786 8.99999ZM103.821 8.99999L107.893 8.99999L107.893 6.99999L103.821 6.99999L103.821 8.99999ZM111.964 8.99999L116.036 8.99999L116.036 6.99999L111.964 6.99999L111.964 8.99999ZM120.107 8.99999L124.179 8.99999L124.179 6.99999L120.107 6.99999L120.107 8.99999ZM128.25 8.99999L132.321 8.99999L132.321 6.99999L128.25 6.99999L128.25 8.99999ZM136.393 8.99999L140.464 8.99999L140.464 6.99999L136.393 6.99999L136.393 8.99999ZM144.536 8.99999L148.607 8.99999L148.607 6.99999L144.536 6.99999L144.536 8.99999ZM152.679 8.99999L156.75 8.99999L156.75 6.99999L152.679 6.99999L152.679 8.99999ZM160.821 8.99999L164.893 8.99999L164.893 6.99999L160.821 6.99999L160.821 8.99999ZM168.964 8.99999L171 8.99999L171 6.99999L168.964 6.99999L168.964 8.99999Z" fill="#98A2B3"/>
</svg>
